
******* City.of.Men.2007.DVDRiP.XviD.OPTIONAL-MULTISUB-Zen_Bud *******

Format                           : AVI
File size                        : 818 MiB
Duration                         : 1h 42mn
Overall bit rate                 : 1 118 Kbps

Video

Format                           : MPEG-4 Visual
Codec ID/Hint                    : XviD
Duration                         : 1h 42mn
Bit rate                         : 977 Kbps
Width                            : 716 pixels
Height                           : 552 pixels
Display aspect ratio             : 16:9
Stream size                      : 715 MiB (87%)
Writing library                  : XviD 1.1.2 (UTC 2006-11-01)

Audio

Format                           : MPEG Audio
Codec ID/Hint                    : MP3
Duration                         : 1h 42mn
Bit rate                         : 128 Kbps
Channel(s)                       : 2 channels
Sampling rate                    : 48.0 KHz
Stream size                      : 93.6 MiB (11%)
Language                         : Portuguese

Text #1
Language                         : Danish

Text #2
Language                         : Swedish

Text #3
Language                         : Norwegian

Text #4
Language                         : Finnish

Text #5
Language                         : Icelandic

Best buddies Acerola and Laranjinha, about to turn 18, discover things about their missing fathers' pasts which will shatter their solid friendship, in the middle of a war between rival drug gangs from Rio's favelas. 